# Blender v2.77 (sub 0) OBJ File: ''
# www.blender.org
mtllib untitled.mtl
o Cube
v -0.895090 1.482751 -0.016239
v -0.364462 0.472217 1.626093
v 1.474694 0.225442 0.880030
v 0.944065 1.235976 -0.762302
v -1.474694 -0.225442 -0.880030
v -0.944065 -1.235976 0.762302
v 0.895090 -1.482751 0.016239
v 0.364461 -0.472217 -1.626093
vn 0.2898 0.8541 0.4319
vn -0.2898 -0.8541 -0.4319
vn -0.9196 0.1234 0.3730
vn 0.2653 -0.5053 0.8212
vn 0.9196 -0.1234 -0.3730
vn -0.2653 0.5053 -0.8212
usemtl Material
s off
f 1//1 3//1 4//1
f 8//2 6//2 5//2
f 5//3 2//3 1//3
f 6//4 3//4 2//4
f 3//5 8//5 4//5
f 5//6 4//6 8//6
f 1//1 2//1 3//1
f 8//2 7//2 6//2
f 5//3 6//3 2//3
f 6//4 7//4 3//4
f 3//5 7//5 8//5
f 5//6 1//6 4//6
